HIERARCHY
ROOT Hips
{
	OFFSET 0.000000 0.000000 0.000000
	CHANNELS 6 Xposition Yposition Zposition Xrotation Yrotation Zrotation
	JOINT LeftUpLeg_virtual
	{
		OFFSET 0.000000 0.000000 0.000000
		CHANNELS 3 Xrotation Yrotation Zrotation
		JOINT LeftUpLeg
		{
			OFFSET 10.205400 -3.823500 0.155100
			CHANNELS 3 Xrotation Yrotation Zrotation
			JOINT LeftLeg
			{
				OFFSET 0.708757 -12.982077 0.567790
				CHANNELS 3 Xrotation Yrotation Zrotation
				JOINT LeftFoot
				{
					OFFSET -0.708756 -10.717838 -2.184338
					CHANNELS 3 Xrotation Yrotation Zrotation
					JOINT LeftToeBase
					{
						OFFSET 0.108149 -7.191104 7.560241
						CHANNELS 3 Xrotation Yrotation Zrotation
						JOINT LeftToe_End
						{
							OFFSET 0.070230 0.081724 4.490308
							CHANNELS 3 Xrotation Yrotation Zrotation
							End Site
							{
								OFFSET 0 0 0
							}
						}
					}
				}
			}
		}
	}
	JOINT RightUpLeg_virtual
	{
		OFFSET 0.000000 0.000000 0.000000
		CHANNELS 3 Xrotation Yrotation Zrotation
		JOINT RightUpLeg
		{
			OFFSET -10.205400 -3.823500 0.005500
			CHANNELS 3 Xrotation Yrotation Zrotation
			JOINT RightLeg
			{
				OFFSET -0.708756 -12.982134 0.610632
				CHANNELS 3 Xrotation Yrotation Zrotation
				JOINT RightFoot
				{
					OFFSET 0.708754 -10.717769 -1.945823
					CHANNELS 3 Xrotation Yrotation Zrotation
					JOINT RightToeBase
					{
						OFFSET -0.108140 -7.191069 7.372968
						CHANNELS 3 Xrotation Yrotation Zrotation
						JOINT RightToe_End
						{
							OFFSET -0.070227 0.081735 4.479403
							CHANNELS 3 Xrotation Yrotation Zrotation
							End Site
							{
								OFFSET 0 0 0
							}
						}
					}
				}
			}
		}
	}
	JOINT Spine_virtual
	{
		OFFSET 0.000000 0.000000 0.000000
		CHANNELS 3 Xrotation Yrotation Zrotation
		JOINT Spine
		{
			OFFSET 0.000000 6.876099 0.125700
			CHANNELS 3 Xrotation Yrotation Zrotation
			JOINT Spine1
			{
				OFFSET 0.000000 5.730043 0.104720
				CHANNELS 3 Xrotation Yrotation Zrotation
				JOINT Spine1_split
				{
					OFFSET 0.000000 5.730043 0.104720
					CHANNELS 3 Xrotation Yrotation Zrotation
					JOINT Spine2
					{
						OFFSET 0.000000 5.730043 0.104720
						CHANNELS 3 Xrotation Yrotation Zrotation
						JOINT Neck_virtual
						{
							OFFSET 0.000000 0.000000 0.000000
							CHANNELS 3 Xrotation Yrotation Zrotation
							JOINT Neck
							{
								OFFSET 0.000000 10.314075 0.188496
								CHANNELS 3 Xrotation Yrotation Zrotation
								JOINT Head
								{
									OFFSET 0.000000 7.643700 -2.377400
									CHANNELS 3 Xrotation Yrotation Zrotation
									JOINT HeadTop_End
									{
										OFFSET 0.000000 43.788605 -13.619600
										CHANNELS 3 Xrotation Yrotation Zrotation
										End Site
										{
											OFFSET 0 0 0
										}
									}
								}
							}
						}
						JOINT LeftShoulder_virtual
						{
							OFFSET 0.000000 0.000000 0.000000
							CHANNELS 3 Xrotation Yrotation Zrotation
							JOINT LeftShoulder
							{
								OFFSET 2.196100 4.412489 0.087492
								CHANNELS 3 Xrotation Yrotation Zrotation
								JOINT LeftShoulder_split
								{
									OFFSET 2.196100 4.412489 0.087492
									CHANNELS 3 Xrotation Yrotation Zrotation
									JOINT LeftArm
									{
										OFFSET 8.771219 -2.981674 -0.026999
										CHANNELS 3 Xrotation Yrotation Zrotation
										JOINT LeftForeArm
										{
											OFFSET 8.512804 0.000000 -0.000000
											CHANNELS 3 Xrotation Yrotation Zrotation
											JOINT LeftHand
											{
												OFFSET 18.484802 0.000000 -0.000000
												CHANNELS 3 Xrotation Yrotation Zrotation
												End Site
												{
													OFFSET 0 0 0
												}
											}
										}
									}
								}
							}
						}
						JOINT RightShoulder_virtual
						{
							OFFSET 0.000000 0.000000 0.000000
							CHANNELS 3 Xrotation Yrotation Zrotation
							JOINT RightShoulder
							{
								OFFSET -2.196100 4.412496 0.070690
								CHANNELS 3 Xrotation Yrotation Zrotation
								JOINT RightShoulder_split
								{
									OFFSET -2.196100 4.412496 0.070690
									CHANNELS 3 Xrotation Yrotation Zrotation
									JOINT RightArm
									{
										OFFSET -8.771282 -2.981682 -0.094208
										CHANNELS 3 Xrotation Yrotation Zrotation
										JOINT RightForeArm
										{
											OFFSET -8.494598 0.000000 0.000000
											CHANNELS 3 Xrotation Yrotation Zrotation
											JOINT RightHand
											{
												OFFSET -18.483803 0.000000 0.000001
												CHANNELS 3 Xrotation Yrotation Zrotation
												End Site
												{
													OFFSET 0 0 0
												}
											}
										}
									}
								}
							}
						}
					}
				}
			}
		}
	}
}
MOTION
Frames: 8
Frame Time: 0.03333333
-0.178030 34.135643 -0.179218 0.000000 0.000000 0.000000 -3.499463 2.189136 2.648716 2.905016 8.370387 5.446196 16.570601 3.601128 -1.453938 -19.106278 2.606941 -6.605508 1.929681 0.382575 -1.081145 0.000000 0.000000 0.000000 -3.638256 2.657809 2.663662 6.342539 -11.020166 -12.136517 10.485704 -4.345123 -1.464930 -14.087777 -3.153479 9.767784 -4.526577 -1.260648 -1.301778 0.000000 0.000000 0.000000 -2.652615 2.598961 2.258546 3.443166 -0.638047 -0.152253 1.448393 -0.452718 0.747929 0.907599 0.095019 0.150725 0.000000 0.000000 0.000000 0.917491 -0.071903 0.195307 0.250008 0.624437 -1.013438 -4.494744 -5.019868 -1.670943 0.000000 0.000000 0.000000 0.975290 -0.137892 0.376698 0.950629 -2.182000 -16.028186 -0.123422 -0.381108 -0.562191 4.554272 -8.389269 -37.341245 0.844823 -64.964388 0.843592 0.000000 0.000000 0.000000 1.038486 -0.022770 0.442587 1.163472 4.889559 20.396868 1.454822 1.305723 -1.533032 -2.834566 5.684902 57.642336 0.392129 18.688513 0.421459 0.000000 0.000000 0.000000 
-0.193447 34.134991 -0.162067 0.000000 0.000000 0.000000 -3.563327 2.181270 2.687970 2.951492 8.519793 5.418630 16.513499 3.564423 -1.412352 -19.006810 2.599881 -6.572860 1.941544 0.382280 -1.077376 0.000000 0.000000 0.000000 -3.664138 2.644387 2.692973 6.377181 -10.984678 -12.164359 10.587024 -4.319211 -1.447334 -14.105577 -3.153705 9.851861 -4.507678 -1.259383 -1.327430 0.000000 0.000000 0.000000 -2.715183 2.667519 2.278806 3.441216 -0.646576 -0.157835 1.430103 -0.437971 0.773671 0.962412 0.022311 0.182926 0.000000 0.000000 0.000000 0.949183 -0.066542 0.235740 0.217647 0.713387 -1.146707 -4.348702 -5.037436 -1.637546 0.000000 0.000000 0.000000 0.926393 -0.117753 0.377275 0.985893 -2.151065 -16.011481 -0.223666 -0.595184 -0.562283 4.656137 -8.400068 -37.343492 0.855273 -64.905908 0.855318 0.000000 0.000000 0.000000 1.046004 -0.004836 0.473461 1.203134 4.697218 20.272046 1.087176 1.133064 -1.463117 -2.919688 5.947114 57.309413 0.460577 18.196937 0.475511 0.000000 0.000000 0.000000 
-0.200902 34.135281 -0.146404 0.000000 0.000000 0.000000 -3.609474 2.330688 2.754769 3.025399 8.651112 5.311433 16.353986 3.523674 -1.357097 -18.873271 2.568143 -6.445732 1.947119 0.383166 -1.078176 0.000000 0.000000 0.000000 -3.706681 2.767026 2.753797 6.494894 -10.955782 -12.206876 10.710791 -4.368473 -1.432684 -14.162491 -3.208539 9.944911 -4.478273 -1.266536 -1.327652 0.000000 0.000000 0.000000 -2.785164 2.821448 2.323288 3.408510 -0.652077 -0.169401 1.403490 -0.427910 0.786972 0.945807 0.010609 0.210853 0.000000 0.000000 0.000000 0.959515 -0.069450 0.264604 0.231100 0.899461 -1.247495 -4.022529 -4.939419 -1.568280 0.000000 0.000000 0.000000 0.891595 -0.099107 0.362366 1.033024 -2.089014 -15.953421 -0.274371 -0.772060 -0.620884 4.732663 -8.386091 -37.382974 0.898320 -64.869510 0.930170 0.000000 0.000000 0.000000 1.056792 0.007145 0.487192 1.278804 4.535690 19.907864 0.778202 1.072969 -1.368491 -3.125511 6.149179 57.206420 0.516535 17.637254 0.508829 0.000000 0.000000 0.000000 
-0.197627 34.134029 -0.131218 0.000000 0.000000 0.000000 -3.647861 2.608659 2.832132 3.104200 8.746461 5.141830 16.152428 3.462211 -1.292168 -18.740110 2.517282 -6.247646 1.953136 0.385012 -1.085608 0.000000 0.000000 0.000000 -3.761671 3.010044 2.831129 6.686780 -10.939063 -12.258078 10.822459 -4.492053 -1.425018 -14.256515 -3.304283 10.047235 -4.455083 -1.275439 -1.312112 0.000000 0.000000 0.000000 -2.862070 3.028621 2.382157 3.351949 -0.651032 -0.177802 1.368295 -0.422390 0.786710 0.882200 0.052992 0.215083 0.000000 0.000000 0.000000 0.943106 -0.079834 0.282595 0.287258 1.175296 -1.313930 -3.555094 -4.745006 -1.462544 0.000000 0.000000 0.000000 0.865140 -0.086501 0.338384 1.084899 -2.011691 -15.861955 -0.309000 -0.880476 -0.686009 4.761876 -8.345950 -37.454541 0.963106 -64.853876 1.051506 0.000000 0.000000 0.000000 1.067914 0.014160 0.483735 1.378739 4.411772 19.339643 0.574524 1.068599 -1.284291 -3.350942 6.271224 57.340620 0.552186 17.207405 0.512138 0.000000 0.000000 0.000000 
-0.187083 34.129261 -0.120735 0.000000 0.000000 0.000000 -3.684763 2.990202 2.909211 3.157624 8.793692 4.934518 15.967626 3.365823 -1.221748 -18.641150 2.453258 -6.011232 1.967267 0.388883 -1.103167 0.000000 0.000000 0.000000 -3.823008 3.351942 2.910131 6.920621 -10.936395 -12.312215 10.912909 -4.675958 -1.418238 -14.384129 -3.410504 10.168051 -4.444078 -1.280101 -1.289523 0.000000 0.000000 0.000000 -2.934948 3.273983 2.445634 3.278021 -0.638067 -0.172908 1.327489 -0.421944 0.773123 0.842229 0.096059 0.204880 0.000000 0.000000 0.000000 0.900332 -0.093705 0.290077 0.366760 1.533291 -1.359594 -3.010001 -4.519296 -1.317960 0.000000 0.000000 0.000000 0.848922 -0.083698 0.312184 1.136226 -1.927877 -15.740564 -0.385117 -0.933304 -0.760645 4.741494 -8.294416 -37.552657 1.029027 -64.857222 1.193678 0.000000 0.000000 0.000000 1.081165 0.015129 0.464104 1.498047 4.328178 18.601214 0.394271 1.034325 -1.218570 -3.410701 6.281291 57.664043 0.568810 17.269433 0.484316 0.000000 0.000000 0.000000 
-0.173748 34.118961 -0.113802 0.000000 0.000000 0.000000 -3.727739 3.440802 2.977591 3.167226 8.785988 4.719086 15.830820 3.228087 -1.153477 -18.590214 2.381968 -5.775144 1.979908 0.395217 -1.128174 0.000000 0.000000 0.000000 -3.900603 3.760070 2.984276 7.174827 -10.959323 -12.369761 10.972970 -4.897567 -1.410105 -14.539774 -3.492756 10.315855 -4.440456 -1.275451 -1.264683 0.000000 0.000000 0.000000 -3.002476 3.559534 2.514034 3.199401 -0.609203 -0.149939 1.285709 -0.426115 0.750437 0.832861 0.152530 0.203259 0.000000 0.000000 0.000000 0.835543 -0.107438 0.287599 0.450310 1.951196 -1.393529 -2.454904 -4.320297 -1.138101 0.000000 0.000000 0.000000 0.841456 -0.086840 0.290167 1.181124 -1.852926 -15.593752 -0.465928 -0.956584 -0.826611 4.692504 -8.244121 -37.675098 1.082785 -64.888614 1.334367 0.000000 0.000000 0.000000 1.089093 0.009835 0.433635 1.636542 4.267038 17.725891 0.256284 0.958415 -1.152797 -3.140454 6.220664 58.141869 0.577901 18.201209 0.427826 0.000000 0.000000 0.000000 
-0.157233 34.103615 -0.108049 0.000000 0.000000 0.000000 -3.775682 3.955522 3.041846 3.127001 8.726160 4.502463 15.741084 3.061580 -1.097735 -18.579826 2.305345 -5.555243 1.969940 0.403761 -1.148689 0.000000 0.000000 0.000000 -3.984177 4.222270 3.049420 7.434231 -11.035024 -12.430778 11.004253 -5.145159 -1.403578 -14.713308 -3.535025 10.492148 -4.434671 -1.262508 -1.243492 0.000000 0.000000 0.000000 -3.062800 3.880862 2.589480 3.123419 -0.557171 -0.105521 1.242723 -0.431975 0.720595 0.833855 0.188317 0.207191 0.000000 0.000000 0.000000 0.756961 -0.115169 0.274800 0.526567 2.401919 -1.428053 -1.966452 -4.193072 -0.931192 0.000000 0.000000 0.000000 0.842241 -0.093624 0.274408 1.221670 -1.787656 -15.440145 -0.517426 -0.964310 -0.865113 4.641443 -8.184722 -37.827370 1.123688 -64.956752 1.457427 0.000000 0.000000 0.000000 1.087544 -0.000844 0.392846 1.792581 4.228329 16.745819 0.180815 0.941029 -1.105666 -2.475064 6.132617 58.703133 0.583003 20.293629 0.355836 0.000000 0.000000 0.000000 
-0.141995 34.086113 -0.104794 0.000000 0.000000 0.000000 -3.815206 4.507204 3.108898 3.047498 8.621719 4.290697 15.689440 2.872849 -1.059849 -18.566047 2.221941 -5.358588 1.923355 0.414645 -1.158883 0.000000 0.000000 0.000000 -4.066803 4.732612 3.115546 7.686684 -11.182829 -12.502368 11.003285 -5.411027 -1.396183 -14.892568 -3.528076 10.692536 -4.432141 -1.244430 -1.227483 0.000000 0.000000 0.000000 -3.107138 4.256350 2.675216 3.058343 -0.477503 -0.044466 1.199059 -0.432476 0.685883 0.837419 0.177091 0.241951 0.000000 0.000000 0.000000 0.679781 -0.114354 0.250503 0.593433 2.865330 -1.478743 -1.608586 -4.196739 -0.711870 0.000000 0.000000 0.000000 0.855485 -0.101441 0.263312 1.255929 -1.733364 -15.295194 -0.519411 -0.923634 -0.878678 4.599843 -8.098343 -38.019176 1.160524 -65.068016 1.560774 0.000000 0.000000 0.000000 1.076092 -0.015279 0.346071 1.963171 4.216140 15.707678 0.067333 1.012684 -1.050416 -1.381573 6.107256 59.314667 0.599937 23.558699 0.278927 0.000000 0.000000 0.000000 
